<?xml version="1.0" encoding="UTF-8"?>
<svg width="412" height="134" viewBox="0 0 412 134" xmlns="http://www.w3.org/2000/svg" role="img" aria-label="sisicallcall">
  <title>sisicallcall</title>
  <style>
    :root { --canvas:#ffffff; --border:#d1d9e0; --text:#59636e; --link:#0969da; }
    @media (prefers-color-scheme: dark) { :root { --canvas:#212830; --border:#3d444d; --text:#9198a1; --link:#478be6; } }
    text { font-family:-apple-system,BlinkMacSystemFont,"Segoe UI","Noto Sans KR","Noto Sans",Helvetica,Arial,sans-serif; }
  </style>
  <rect x="0.5" y="0.5" width="411" height="133" rx="6" ry="6" fill="var(--canvas)" stroke="var(--border)"/>
  <g transform="translate(16,17.5) scale(0.95)">
    <path d="M2 2.5A2.5 2.5 0 0 1 4.5 0h8.75a.75.75 0 0 1 .75.75v12.5a.75.75 0 0 1-.75.75h-2.5a.75.75 0 0 1 0-1.5h1.75v-2h-8a1 1 0 0 0-.714 1.7.75.75 0 1 1-1.072 1.05A2.495 2.495 0 0 1 2 11.5Zm10.5-1h-8a1 1 0 0 0-1 1v6.708A2.486 2.486 0 0 1 4.5 9h8ZM5 12.25a.25.25 0 0 1 .25-.25h3.5a.25.25 0 0 1 .25.25v3.25a.25.25 0 0 1-.4.2l-1.45-1.087a.249.249 0 0 0-.3 0L5.4 15.7a.25.25 0 0 1-.4-.2Z" fill="var(--text)" fill-rule="evenodd"/>
  </g>
  <a href="https://github.com/KDY0829/sisicallcall/" target="_blank">
    <text x="33" y="29" font-size="13.1" fill="var(--link)" font-weight="700">sisicallcall</text>
  </a>
  <g transform="translate(356,16)">
    <rect width="40" height="16" rx="8" fill="transparent" stroke="var(--border)"/>
    <text x="8" y="12" font-size="9.2" fill="var(--text)">Public</text>
  </g>
  <text x="16" y="57" font-size="12.2" fill="var(--text)">AI 음성 상담과 Post-Call 자동화를 연결한</text>
  <text x="16" y="73.5" font-size="12.2" fill="var(--text)">B2B SaaS 플랫폼</text>
  <circle cx="22" cy="113.7" r="6" fill="#3572A5"/>
  <text x="34" y="118" font-size="12.2" fill="var(--text)">Python</text>
  <g transform="translate(88,107.5) scale(0.54)">
    <path d="M3.5 8a5.5 5.5 0 1 1 8.596 4.547 9.005 9.005 0 0 1 5.9 8.18.751.751 0 0 1-1.5.045 7.5 7.5 0 0 0-14.993 0 .75.75 0 0 1-1.499-.044 9.005 9.005 0 0 1 5.9-8.181A5.496 5.496 0 0 1 3.5 8ZM9 4a4 4 0 1 0 0 8 4 4 0 0 0 0-8Zm8.29 4c-.148 0-.292.01-.434.03a.75.75 0 1 1-.212-1.484 4.53 4.53 0 0 1 3.38 8.097 6.69 6.69 0 0 1 3.956 6.107.75.75 0 0 1-1.5 0 5.193 5.193 0 0 0-3.696-4.972l-.534-.16v-1.676l.41-.209A3.03 3.03 0 0 0 17.29 8Z" fill="var(--text)" fill-rule="evenodd"/>
  </g>
  <text x="104" y="118" font-size="12.2" fill="var(--text)">4</text>
</svg>
