<svg width="1200" height="430" viewBox="0 0 1200 430" fill="none" xmlns="http://www.w3.org/2000/svg">
  <defs>
    <linearGradient id="bg" x1="0" y1="0" x2="1200" y2="430" gradientUnits="userSpaceOnUse">
      <stop offset="0" stop-color="#052E16"/>
      <stop offset="0.5" stop-color="#064E3B"/>
      <stop offset="1" stop-color="#0F766E"/>
    </linearGradient>
    <radialGradient id="glow" cx="0" cy="0" r="1" gradientUnits="userSpaceOnUse" gradientTransform="translate(930 90) rotate(135) scale(480 270)">
      <stop stop-color="#86EFAC" stop-opacity="0.42"/>
      <stop offset="1" stop-color="#86EFAC" stop-opacity="0"/>
    </radialGradient>
    <filter id="shadow" x="-20%" y="-20%" width="140%" height="140%">
      <feDropShadow dx="0" dy="16" stdDeviation="20" flood-color="#020617" flood-opacity="0.32"/>
    </filter>
  </defs>
  <rect width="1200" height="430" rx="36" fill="url(#bg)"/>
  <rect width="1200" height="430" rx="36" fill="url(#glow)"/>
  <circle cx="1080" cy="360" r="170" fill="#ECFDF5" opacity="0.08"/>
  <text x="72" y="92" fill="#BBF7D0" font-family="Segoe UI, Pretendard, Apple SD Gothic Neo, Arial, sans-serif" font-size="22" font-weight="800" letter-spacing="4">ON-DEVICE AI PROJECT</text>
  <text x="72" y="156" fill="#FFFFFF" font-family="Segoe UI, Pretendard, Apple SD Gothic Neo, Arial, sans-serif" font-size="54" font-weight="900">GrabIT</text>
  <text x="72" y="202" fill="#DCFCE7" font-family="Segoe UI, Pretendard, Apple SD Gothic Neo, Arial, sans-serif" font-size="27" font-weight="700">시각장애인을 위한 실시간 쇼핑 어시스턴트</text>
  <text x="72" y="256" fill="#ECFDF5" font-family="Segoe UI, Pretendard, Apple SD Gothic Neo, Arial, sans-serif" font-size="21">YOLOX-Nano TFLite · MediaPipe Hands · CameraX · STT/TTS · E5 임베딩 검색</text>
  <g>
    <rect x="72" y="308" width="108" height="34" rx="17" fill="#16A34A"/>
    <text x="99" y="330" fill="#FFFFFF" font-family="Segoe UI, Arial" font-size="15" font-weight="800">Kotlin</text>
    <rect x="194" y="308" width="124" height="34" rx="17" fill="#047857"/>
    <text x="219" y="330" fill="#FFFFFF" font-family="Segoe UI, Arial" font-size="15" font-weight="800">TFLite</text>
    <rect x="332" y="308" width="142" height="34" rx="17" fill="#0D9488"/>
    <text x="358" y="330" fill="#FFFFFF" font-family="Segoe UI, Arial" font-size="15" font-weight="800">CameraX</text>
    <rect x="488" y="308" width="142" height="34" rx="17" fill="#0369A1"/>
    <text x="516" y="330" fill="#FFFFFF" font-family="Segoe UI, Arial" font-size="15" font-weight="800">FastAPI</text>
  </g>
  <g filter="url(#shadow)">
    <rect x="785" y="70" width="260" height="300" rx="34" fill="#020617" opacity="0.78"/>
    <rect x="812" y="105" width="206" height="190" rx="24" fill="#0B1220"/>
    <rect x="842" y="132" width="72" height="56" rx="14" stroke="#86EFAC" stroke-width="5"/>
    <rect x="925" y="132" width="62" height="56" rx="14" stroke="#22D3EE" stroke-width="5"/>
    <path d="M881 225 C901 195 934 195 954 225" stroke="#FDE68A" stroke-width="8" stroke-linecap="round"/>
    <circle cx="884" cy="224" r="9" fill="#FDE68A"/>
    <circle cx="954" cy="224" r="9" fill="#FDE68A"/>
    <rect x="850" y="320" width="130" height="16" rx="8" fill="#DCFCE7" opacity="0.85"/>
  </g>
</svg>
