<svg width="1200" height="320" viewBox="0 0 1200 320" fill="none" xmlns="http://www.w3.org/2000/svg">
  <defs>
    <linearGradient id="bg" x1="0" y1="0" x2="1200" y2="320" gradientUnits="userSpaceOnUse">
      <stop offset="0" stop-color="#182D35"/>
      <stop offset="0.52" stop-color="#2B4B56"/>
      <stop offset="1" stop-color="#3A6678"/>
    </linearGradient>
    <radialGradient id="glow" cx="0" cy="0" r="1" gradientUnits="userSpaceOnUse" gradientTransform="translate(920 70) rotate(140) scale(430 250)">
      <stop stop-color="#7DB7FF" stop-opacity="0.48"/>
      <stop offset="1" stop-color="#7DB7FF" stop-opacity="0"/>
    </radialGradient>
    <filter id="shadow" x="-20%" y="-20%" width="140%" height="140%">
      <feDropShadow dx="0" dy="16" stdDeviation="18" flood-color="#000000" flood-opacity="0.20"/>
    </filter>
  </defs>
  <rect width="1200" height="320" rx="36" fill="url(#bg)"/>
  <rect width="1200" height="320" rx="36" fill="url(#glow)"/>
  <path d="M0 235 C210 190 350 285 570 235 C790 185 930 250 1200 205 V320 H0 V235Z" fill="#FFFFFF" opacity="0.10"/>
  <path d="M0 260 C220 220 370 300 590 250 C805 202 950 268 1200 232 V320 H0 V260Z" fill="#FFFFFF" opacity="0.15"/>
  <g filter="url(#shadow)">
    <rect x="710" y="72" width="360" height="176" rx="26" fill="#111A2E" opacity="0.72"/>
    <rect x="742" y="105" width="90" height="14" rx="7" fill="#60A5FA" opacity="0.96"/>
    <rect x="742" y="137" width="264" height="12" rx="6" fill="#E2E8F0" opacity="0.90"/>
    <rect x="742" y="165" width="210" height="12" rx="6" fill="#CBD5E1" opacity="0.66"/>
    <rect x="742" y="197" width="78" height="24" rx="12" fill="#22C55E" opacity="0.9"/>
    <rect x="836" y="197" width="78" height="24" rx="12" fill="#A855F7" opacity="0.9"/>
    <rect x="930" y="197" width="78" height="24" rx="12" fill="#F97316" opacity="0.9"/>
  </g>
  <text x="90" y="120" fill="#FFFFFF" font-family="Segoe UI, Pretendard, Apple SD Gothic Neo, Arial, sans-serif" font-size="46" font-weight="800">KIM Daeyoung</text>
  <text x="90" y="166" fill="#D8E0FF" font-family="Segoe UI, Pretendard, Apple SD Gothic Neo, Arial, sans-serif" font-size="24" font-weight="700">AI Developer · Computer Vision · Agent/RAG · LLM</text>
  <text x="90" y="214" fill="#F1F5F9" font-family="Segoe UI, Pretendard, Apple SD Gothic Neo, Arial, sans-serif" font-size="20">사용자 문제를 실제 서비스로 연결하는 AI 개발자</text>
</svg>
