<svg width="1200" height="520" viewBox="0 0 1200 520" fill="none" xmlns="http://www.w3.org/2000/svg">
  <defs>
    <linearGradient id="card" x1="0" y1="0" x2="1200" y2="520" gradientUnits="userSpaceOnUse">
      <stop offset="0" stop-color="#111827"/>
      <stop offset="0.45" stop-color="#172554"/>
      <stop offset="1" stop-color="#312E81"/>
    </linearGradient>
    <radialGradient id="aura" cx="0" cy="0" r="1" gradientUnits="userSpaceOnUse" gradientTransform="translate(870 95) rotate(132) scale(520 300)">
      <stop stop-color="#22D3EE" stop-opacity="0.45"/>
      <stop offset="1" stop-color="#22D3EE" stop-opacity="0"/>
    </radialGradient>
    <filter id="soft" x="-20%" y="-20%" width="140%" height="140%">
      <feDropShadow dx="0" dy="18" stdDeviation="22" flood-color="#020617" flood-opacity="0.35"/>
    </filter>
  </defs>
  <rect width="1200" height="520" rx="38" fill="url(#card)"/>
  <rect width="1200" height="520" rx="38" fill="url(#aura)"/>
  <circle cx="1050" cy="80" r="140" fill="#60A5FA" opacity="0.12"/>
  <circle cx="102" cy="430" r="190" fill="#A78BFA" opacity="0.1"/>
  <text x="76" y="98" fill="#67E8F9" font-family="Segoe UI, Pretendard, Apple SD Gothic Neo, Arial, sans-serif" font-size="24" font-weight="800" letter-spacing="4">FEATURED PROJECT</text>
  <text x="76" y="166" fill="#FFFFFF" font-family="Segoe UI, Pretendard, Apple SD Gothic Neo, Arial, sans-serif" font-size="58" font-weight="900">시시콜콜</text>
  <text x="76" y="214" fill="#DBEAFE" font-family="Segoe UI, Pretendard, Apple SD Gothic Neo, Arial, sans-serif" font-size="28" font-weight="700">AI 음성 고객상담 운영 플랫폼</text>
  <text x="76" y="272" fill="#E5E7EB" font-family="Segoe UI, Pretendard, Apple SD Gothic Neo, Arial, sans-serif" font-size="22">전화를 받고, 이해하고, 요약하고, 분석하고, 후속 업무까지 실행하는 B2B SaaS</text>
  <g filter="url(#soft)">
    <rect x="700" y="96" width="390" height="315" rx="30" fill="#020617" opacity="0.72"/>
    <circle cx="760" cy="156" r="30" fill="#38BDF8"/>
    <path d="M752 148 C752 139 768 139 768 148 V164 C768 173 752 173 752 164 V148Z" fill="#0F172A"/>
    <path d="M744 163 C744 180 776 180 776 163" stroke="#0F172A" stroke-width="7" stroke-linecap="round"/>
    <rect x="815" y="137" width="210" height="16" rx="8" fill="#F8FAFC" opacity="0.92"/>
    <rect x="815" y="169" width="160" height="12" rx="6" fill="#CBD5E1" opacity="0.66"/>
    <path d="M760 248 H830" stroke="#60A5FA" stroke-width="5" stroke-linecap="round"/>
    <path d="M830 248 H900" stroke="#A78BFA" stroke-width="5" stroke-linecap="round"/>
    <path d="M900 248 H970" stroke="#34D399" stroke-width="5" stroke-linecap="round"/>
    <path d="M970 248 H1040" stroke="#FB923C" stroke-width="5" stroke-linecap="round"/>
    <rect x="742" y="288" width="90" height="54" rx="18" fill="#1D4ED8" opacity="0.92"/>
    <rect x="852" y="288" width="90" height="54" rx="18" fill="#7C3AED" opacity="0.92"/>
    <rect x="962" y="288" width="90" height="54" rx="18" fill="#059669" opacity="0.92"/>
    <text x="765" y="322" fill="#FFFFFF" font-family="Segoe UI, Arial" font-size="15" font-weight="800">STT</text>
    <text x="872" y="322" fill="#FFFFFF" font-family="Segoe UI, Arial" font-size="15" font-weight="800">RAG</text>
    <text x="980" y="322" fill="#FFFFFF" font-family="Segoe UI, Arial" font-size="15" font-weight="800">MCP</text>
  </g>
  <g>
    <rect x="76" y="334" width="116" height="34" rx="17" fill="#2563EB"/>
    <text x="101" y="356" fill="#FFFFFF" font-family="Segoe UI, Arial" font-size="15" font-weight="800">FastAPI</text>
    <rect x="206" y="334" width="134" height="34" rx="17" fill="#7C3AED"/>
    <text x="232" y="356" fill="#FFFFFF" font-family="Segoe UI, Arial" font-size="15" font-weight="800">LangGraph</text>
    <rect x="354" y="334" width="104" height="34" rx="17" fill="#0891B2"/>
    <text x="382" y="356" fill="#FFFFFF" font-family="Segoe UI, Arial" font-size="15" font-weight="800">RAG</text>
    <rect x="472" y="334" width="148" height="34" rx="17" fill="#EA580C"/>
    <text x="499" y="356" fill="#FFFFFF" font-family="Segoe UI, Arial" font-size="15" font-weight="800">Post-Call</text>
  </g>
</svg>
