<svg width="1200" height="430" viewBox="0 0 1200 430" fill="none" xmlns="http://www.w3.org/2000/svg">
  <defs>
    <linearGradient id="bg" x1="0" y1="0" x2="1200" y2="430" gradientUnits="userSpaceOnUse">
      <stop offset="0" stop-color="#3B0764"/>
      <stop offset="0.5" stop-color="#6D28D9"/>
      <stop offset="1" stop-color="#BE185D"/>
    </linearGradient>
    <radialGradient id="glow" cx="0" cy="0" r="1" gradientUnits="userSpaceOnUse" gradientTransform="translate(980 85) rotate(140) scale(500 280)">
      <stop stop-color="#FBCFE8" stop-opacity="0.38"/>
      <stop offset="1" stop-color="#FBCFE8" stop-opacity="0"/>
    </radialGradient>
    <filter id="shadow" x="-20%" y="-20%" width="140%" height="140%">
      <feDropShadow dx="0" dy="16" stdDeviation="20" flood-color="#020617" flood-opacity="0.30"/>
    </filter>
  </defs>
  <rect width="1200" height="430" rx="36" fill="url(#bg)"/>
  <rect width="1200" height="430" rx="36" fill="url(#glow)"/>
  <path d="M0 330 C210 270 365 385 585 318 C805 252 980 330 1200 285 V430 H0 V330Z" fill="#FFFFFF" opacity="0.08"/>
  <text x="72" y="92" fill="#FCE7F3" font-family="Segoe UI, Pretendard, Apple SD Gothic Neo, Arial, sans-serif" font-size="22" font-weight="800" letter-spacing="4">FULL-STACK SERVICE PROJECT</text>
  <text x="72" y="156" fill="#FFFFFF" font-family="Segoe UI, Pretendard, Apple SD Gothic Neo, Arial, sans-serif" font-size="54" font-weight="900">UniGen</text>
  <text x="72" y="202" fill="#F5D0FE" font-family="Segoe UI, Pretendard, Apple SD Gothic Neo, Arial, sans-serif" font-size="27" font-weight="700">세대 간 소셜 네트워크 플랫폼</text>
  <text x="72" y="256" fill="#FDF2F8" font-family="Segoe UI, Pretendard, Apple SD Gothic Neo, Arial, sans-serif" font-size="21">일반 SNS 경험과 시니어 친화 UI를 함께 제공하는 통합 SNS</text>
  <g>
    <rect x="72" y="308" width="100" height="34" rx="17" fill="#2563EB"/>
    <text x="96" y="330" fill="#FFFFFF" font-family="Segoe UI, Arial" font-size="15" font-weight="800">React</text>
    <rect x="186" y="308" width="116" height="34" rx="17" fill="#059669"/>
    <text x="216" y="330" fill="#FFFFFF" font-family="Segoe UI, Arial" font-size="15" font-weight="800">Node</text>
    <rect x="316" y="308" width="108" height="34" rx="17" fill="#EA580C"/>
    <text x="345" y="330" fill="#FFFFFF" font-family="Segoe UI, Arial" font-size="15" font-weight="800">MySQL</text>
    <rect x="438" y="308" width="122" height="34" rx="17" fill="#111827"/>
    <text x="469" y="330" fill="#FFFFFF" font-family="Segoe UI, Arial" font-size="15" font-weight="800">OpenAI</text>
  </g>
  <g filter="url(#shadow)">
    <rect x="768" y="70" width="150" height="265" rx="32" fill="#020617" opacity="0.74"/>
    <rect x="944" y="112" width="170" height="220" rx="30" fill="#020617" opacity="0.60"/>
    <circle cx="843" cy="136" r="34" fill="#F9A8D4"/>
    <rect x="805" y="190" width="76" height="12" rx="6" fill="#F8FAFC" opacity="0.92"/>
    <rect x="802" y="220" width="86" height="54" rx="16" fill="#7C3AED" opacity="0.92"/>
    <rect x="979" y="152" width="100" height="12" rx="6" fill="#F8FAFC" opacity="0.90"/>
    <rect x="979" y="184" width="72" height="12" rx="6" fill="#F5D0FE" opacity="0.80"/>
    <rect x="979" y="226" width="94" height="56" rx="18" fill="#BE185D" opacity="0.9"/>
  </g>
</svg>
